<svg width="389" height="138" viewBox="0 0 389 138" fill="none" xmlns="http://www.w3.org/2000/svg">
<g clip-path="url(#clip0_102_2)">
<path d="M246 20H156V33.8264H162.923V40.7396H169.846V47.6528H176.77V54.5659H183.693V61.478H190.615V68.3912H197.538V119.088H183.693V126H197.538H204.462H218.308V119.088H204.462V68.3912H211.385V61.478H218.308V54.5659H225.231V47.6528H232.155V40.7396H239.078V33.8264H246V20Z" fill="#D1E7F8"/>
<path d="M239.078 33.8264H232.155H169.846H162.923V40.7395H169.846V47.6527H176.77V54.5659H183.693V61.478H190.615V68.3912H211.385V61.478H218.308V54.5659H225.231V47.6527H232.155V40.7395H239.078V33.8264Z" fill="#9CDD05"/>
<path d="M169.846 33.8264H162.923V40.7395H169.846V33.8264Z" fill="black"/>
<path d="M176.77 40.7396H169.846V47.6528H176.77V40.7396Z" fill="black"/>
<path d="M183.693 47.6528H176.77V54.566H183.693V47.6528Z" fill="black"/>
<path d="M190.616 54.5659H183.693V61.4791H190.616V54.5659Z" fill="black"/>
<path d="M190.615 68.3912H197.538V119.088H183.693V126H197.538H204.462H218.308V119.088H204.462V68.3912H211.385V61.478H190.615V68.3912Z" fill="black"/>
<path d="M218.308 54.5659H211.385V61.4791H218.308V54.5659Z" fill="black"/>
<path d="M225.231 47.6528H218.308V54.566H225.231V47.6528Z" fill="black"/>
<path d="M232.155 40.7396H225.231V47.6528H232.155V40.7396Z" fill="black"/>
<path d="M239.078 33.8264H232.155V40.7395H239.078V33.8264Z" fill="black"/>
<path d="M239.078 20H162.923H156V26.9132V33.8264H162.923V26.9132H239.078V33.8264H246V26.9132V20H239.078Z" fill="black"/>
<path d="M197.538 54.5659H190.615V61.4791H197.538V54.5659Z" fill="white"/>
<path d="M190.616 47.6528H183.693V54.566H190.616V47.6528Z" fill="white"/>
<path d="M183.693 40.7396H176.77V47.6528H183.693V40.7396Z" fill="white"/>
</g>
<defs>
<clipPath id="clip0_102_2">
<rect width="90" height="106" fill="white" transform="translate(156 20)"/>
</clipPath>
</defs>
</svg>
